<?xml version="1.0" standalone="no"?>
<!DOCTYPE svg PUBLIC "-//W3C//DTD SVG 20010904//EN"
 "http://www.w3.org/TR/2001/REC-SVG-20010904/DTD/svg10.dtd">
<svg version="1.0" xmlns="http://www.w3.org/2000/svg"
 width="400.000000pt" height="400.000000pt" viewBox="0 0 400.000000 400.000000"
 preserveAspectRatio="xMidYMid meet">
<metadata>
Created by potrace 1.14, written by Peter Selinger 2001-2017
</metadata>
<g transform="translate(0.000000,400.000000) scale(0.100000,-0.100000)"
fill="#000000" stroke="none">
<path d="M1947 3984 c-1 -1 -47 -5 -102 -9 -172 -11 -316 -39 -465 -88 -36
-12 -68 -20 -72 -19 -5 1 -8 -2 -8 -6 0 -5 -6 -9 -12 -9 -20 0 -196 -81 -273
-126 -38 -22 -72 -40 -74 -38 -2 1 -7 -1 -10 -6 -3 -4 -46 -37 -96 -73 -119
-86 -124 -90 -235 -200 -103 -103 -122 -124 -191 -215 -65 -84 -196 -301 -204
-335 0 -3 -6 -14 -12 -26 -23 -40 -84 -200 -98 -254 -2 -8 -13 -51 -25 -95
-11 -44 -22 -87 -23 -95 -1 -8 -6 -21 -10 -27 -5 -7 -4 -13 2 -13 6 0 7 -10 1
-27 -33 -101 -35 -427 -6 -623 14 -89 19 -111 42 -200 91 -339 263 -638 514
-890 58 -58 123 -119 145 -135 22 -16 45 -34 50 -40 6 -6 51 -37 100 -70 50
-33 93 -64 97 -70 4 -5 8 -6 8 -2 0 5 15 0 33 -11 137 -85 423 -192 582 -217
22 -4 54 -9 70 -11 17 -3 41 -8 55 -11 57 -13 436 -11 519 2 46 8 87 14 90 13
3 0 8 1 11 2 3 1 17 4 31 6 14 2 50 11 80 19 30 9 63 17 74 19 11 2 22 5 25 6
3 2 10 4 15 4 46 7 260 101 374 164 112 63 107 60 186 117 296 211 522 491
673 835 46 105 100 279 117 379 3 19 7 37 9 40 2 3 7 29 10 56 3 28 9 70 12
95 13 96 6 412 -11 501 -3 13 -8 40 -11 59 -3 19 -12 60 -19 90 -8 30 -16 66
-19 80 -2 14 -16 57 -29 95 -129 369 -315 643 -598 885 -106 90 -118 100 -128
100 -4 0 -16 9 -26 20 -10 11 -24 20 -31 20 -7 0 -14 4 -16 8 -8 21 -335 192
-367 192 -6 0 -19 4 -29 10 -40 22 -271 85 -352 95 -19 3 -46 7 -60 10 -42 8
-307 24 -313 19z m238 -418 c28 -2 57 -6 65 -9 8 -2 67 -17 130 -32 173 -43
312 -104 465 -204 39 -25 73 -47 77 -49 18 -8 178 -152 207 -186 9 -10 29 -32
45 -50 31 -33 118 -150 151 -201 32 -51 115 -215 109 -215 -4 0 -2 -6 4 -12
15 -20 75 -203 88 -273 2 -11 6 -31 9 -45 8 -39 17 -119 20 -180 2 -30 4 -57
5 -60 1 -3 2 -8 2 -11 -1 -4 -4 -56 -6 -115 -6 -126 -10 -159 -37 -274 -25
-108 -63 -219 -100 -294 -16 -33 -29 -65 -29 -73 0 -7 -4 -13 -9 -13 -5 0 -14
-12 -20 -27 -14 -33 -25 -52 -70 -118 -157 -228 -358 -403 -607 -528 -114 -58
-311 -125 -384 -132 -14 -1 -34 -5 -45 -8 -69 -20 -315 -28 -439 -14 -149 16
-329 64 -444 118 -35 16 -69 29 -77 29 -7 0 -15 3 -17 8 -1 4 -28 20 -58 36
-30 16 -69 40 -86 53 -17 13 -36 23 -42 23 -6 0 -12 3 -14 8 -1 4 -23 23 -48
42 -71 55 -78 61 -144 126 -110 110 -197 223 -271 355 -37 65 -103 210 -109
237 -2 10 -6 26 -10 37 -22 57 -27 76 -41 145 -43 203 -50 439 -19 595 2 11 6
31 9 45 3 14 8 41 11 60 8 46 59 203 86 260 11 24 24 55 29 68 11 29 90 165
99 172 4 3 14 19 23 35 18 35 150 191 206 244 82 77 129 114 206 166 96 64
227 135 249 135 9 0 16 4 16 9 0 5 10 11 23 14 12 3 47 14 77 26 71 26 204 61
255 67 22 3 67 7 100 10 33 4 61 7 63 9 4 3 239 -3 297 -9z"/>
<path d="M1391 3370 c-42 -34 -48 -59 -47 -199 l2 -133 33 -30 c29 -26 39 -29
94 -28 136 2 168 -4 197 -37 15 -17 35 -55 45 -84 24 -78 24 -79 25 -84 1 -3
12 -37 26 -76 36 -104 34 -134 -15 -215 -47 -79 -38 -65 -157 -248 -50 -78
-118 -184 -152 -236 -33 -52 -65 -100 -71 -107 -6 -7 -11 -15 -11 -17 0 -3
-42 -70 -93 -148 -136 -207 -170 -263 -168 -267 2 -2 -1 -7 -6 -10 -4 -3 -33
-44 -63 -91 -30 -47 -60 -90 -66 -97 -6 -6 -17 -25 -24 -42 -7 -17 -16 -31
-21 -31 -5 0 -9 -6 -9 -14 0 -8 -4 -16 -8 -18 -11 -4 -52 -77 -52 -92 0 -7 9
-24 21 -37 19 -23 24 -23 187 -24 92 -1 182 2 201 6 50 11 93 61 233 269 69
102 171 253 227 335 56 83 134 198 174 258 72 107 94 126 135 113 21 -7 35
-36 127 -271 36 -93 76 -195 89 -225 13 -30 28 -68 34 -85 6 -16 17 -43 23
-60 7 -16 13 -32 14 -35 5 -14 27 -69 42 -103 9 -21 16 -44 16 -52 0 -8 4 -15
8 -15 4 0 9 -10 13 -23 3 -13 13 -41 23 -63 9 -21 17 -41 18 -44 25 -86 90
-128 157 -101 27 11 377 124 395 127 54 10 179 61 199 80 33 33 31 64 -11 193
-53 162 -71 173 -217 130 -56 -17 -114 -32 -126 -34 -41 -6 -86 49 -127 155
-21 52 -46 116 -56 142 -24 60 -36 90 -39 103 -2 6 -16 38 -31 72 -15 34 -25
64 -22 67 4 3 2 6 -4 6 -5 0 -10 6 -10 13 0 6 -12 38 -26 70 -15 32 -27 60
-27 63 0 3 -66 170 -146 372 -80 202 -180 453 -221 557 -41 105 -84 209 -94
232 -11 24 -19 46 -19 51 0 4 -16 23 -35 42 l-36 34 -264 1 c-222 0 -268 -2
-284 -15z"/>
</g>
</svg>
