<?xml version="1.0" standalone="no"?>
<!DOCTYPE svg PUBLIC "-//W3C//DTD SVG 20010904//EN"
 "http://www.w3.org/TR/2001/REC-SVG-20010904/DTD/svg10.dtd">
<svg version="1.0" xmlns="http://www.w3.org/2000/svg"
 width="1853.000000pt" height="1853.000000pt" viewBox="0 0 1853.000000 1853.000000"
 preserveAspectRatio="xMidYMid meet">
<metadata>
Created by potrace 1.14, written by Peter Selinger 2001-2017
</metadata>
<g transform="translate(0.000000,1853.000000) scale(0.100000,-0.100000)"
fill="#000000" stroke="none">
<path d="M8715 18519 c-2041 -122 -3963 -902 -5508 -2236 -410 -354 -824 -783
-1164 -1205 -1216 -1510 -1921 -3342 -2033 -5282 -13 -230 -13 -832 0 -1062
71 -1234 378 -2413 915 -3521 903 -1861 2427 -3385 4288 -4288 1111 -539 2274
-841 3527 -915 213 -13 837 -13 1050 0 1253 74 2416 376 3527 915 1324 642
2483 1601 3375 2790 1089 1453 1723 3192 1828 5019 13 230 13 832 0 1062 -71
1234 -378 2413 -915 3521 -903 1861 -2427 3385 -4288 4288 -1111 539 -2274
841 -3527 915 -190 11 -882 11 -1075 -1z m1005 -1910 c1303 -76 2579 -510
3665 -1247 1436 -974 2484 -2418 2959 -4079 372 -1299 372 -2736 1 -4033 -440
-1539 -1368 -2890 -2650 -3861 -903 -684 -1980 -1158 -3095 -1363 -674 -124
-1417 -152 -2110 -80 -1078 111 -2135 471 -3074 1046 -1466 897 -2587 2310
-3132 3943 -145 435 -239 831 -303 1270 -83 573 -96 1232 -36 1830 132 1303
633 2579 1431 3641 1012 1349 2444 2305 4074 2723 725 186 1487 256 2270 210z"/>
<path d="M6812 15105 c-40 -7 -98 -25 -129 -40 -114 -56 -255 -193 -326 -315
-56 -97 -62 -145 -62 -495 0 -385 7 -429 86 -550 60 -93 162 -195 252 -254 99
-64 172 -80 417 -91 280 -13 356 -32 489 -123 165 -113 296 -274 364 -447 54
-139 225 -678 253 -800 60 -264 37 -452 -86 -705 -56 -116 -178 -312 -575
-925 -158 -245 -414 -641 -568 -880 -154 -239 -353 -547 -442 -685 -89 -137
-294 -455 -455 -705 -162 -250 -368 -570 -458 -710 -91 -140 -249 -385 -352
-545 -103 -159 -267 -414 -365 -565 -496 -765 -542 -843 -570 -961 -13 -59
-13 -64 10 -126 62 -164 213 -308 349 -332 78 -14 900 -14 1035 -1 262 27 456
131 673 359 117 123 213 253 538 735 151 224 325 480 386 569 210 308 812
1195 1271 1874 113 166 232 332 265 368 63 68 160 142 215 165 54 21 148 9
227 -28 83 -39 191 -144 230 -225 29 -59 733 -1830 741 -1862 1 -5 9 -26 18
-45 8 -19 75 -186 147 -370 389 -982 574 -1439 616 -1520 82 -160 278 -342
431 -400 80 -31 215 -31 337 -1 99 24 251 69 276 81 8 5 83 29 165 55 150 46
243 75 580 181 99 31 290 92 425 136 135 43 304 97 375 120 282 88 345 117
456 206 108 87 224 241 249 331 18 67 12 218 -14 326 -38 156 -122 405 -166
492 -72 142 -211 280 -355 353 -137 70 -251 66 -525 -16 -226 -68 -305 -84
-405 -84 -71 0 -102 5 -146 24 -88 36 -189 108 -270 193 -128 134 -147 168
-292 534 -47 118 -150 378 -230 579 -80 201 -288 723 -462 1160 -174 437 -354
890 -400 1005 -46 116 -250 629 -453 1140 -204 512 -573 1439 -821 2060 -247
622 -463 1161 -480 1198 -47 105 -116 204 -205 295 -138 142 -250 214 -394
255 -76 21 -90 21 -937 24 -686 1 -875 -1 -933 -12z"/>
</g>
</svg>
